<svg width="105" height="103" viewBox="0 0 105 103" fill="none" xmlns="http://www.w3.org/2000/svg">
<path d="M16.5 76C34.0108 72.069 53.3127 53.3048 50.5633 50.5952C44.6703 47.6553 40.594 45.5981 30.4867 40.5553C41.1477 7.17298 61.1316 7.66289 73 9C95.1164 11.4917 100.694 37.7334 100 41.5C99.3058 45.2666 91.4601 45.1189 91.4601 45.1189C131.911 93.3106 62.6018 128.025 16.5 76Z" fill="white" stroke="#5AC5E6" stroke-width="2"/>
<path d="M82 65C65.7053 69.8332 60.6842 71.0415 60.2105 71.0415C61.9172 72.0739 64.5724 73.446 67.1829 74.3369M73.9957 74.6785C74.1493 74.5792 74.2915 74.4656 74.4211 74.3369C77.0737 71.7006 75.2428 73.4662 73.9957 74.6785ZM73.9957 74.6785C72.4823 75.6567 69.856 75.249 67.1829 74.3369M67.1829 74.3369L55 80.3784C62.4211 83.3076 78.0211 87.8478 81.0526 82.5753" stroke="#5AC5E6" stroke-width="2"/>
<path d="M77 66.7436L75.7407 61M75.7407 61L41 72M75.7407 61L68.5676 69.1603M41 72L47.4074 89L64.9386 83.7861M41 72L62.7612 76.2642" stroke="#5AC5E6" stroke-width="2"/>
<path d="M96 39C96 40.283 95.1655 41 94.5 41C93.8345 41 93 40.283 93 39C93 37.717 93.8345 37 94.5 37C95.1655 37 96 37.717 96 39Z" fill="#5AC5E6" stroke="#5AC5E6" stroke-width="2"/>
</svg>
