<?xml version="1.0" standalone="no"?>
<!DOCTYPE svg PUBLIC "-//W3C//DTD SVG 20010904//EN"
 "http://www.w3.org/TR/2001/REC-SVG-20010904/DTD/svg10.dtd">
<svg version="1.0" xmlns="http://www.w3.org/2000/svg"
 width="128.000000pt" height="128.000000pt" viewBox="0 0 128.000000 128.000000"
 preserveAspectRatio="xMidYMid meet">
<metadata>
Created by potrace 1.14, written by Peter Selinger 2001-2017
</metadata>
<g transform="translate(0.000000,128.000000) scale(0.100000,-0.100000)"
fill="#000000" stroke="none">
<path d="M597 833 c-4 -3 -7 -71 -7 -150 l0 -143 40 0 40 0 0 150 0 150 -33 0
c-19 0 -37 -3 -40 -7z"/>
<path d="M373 750 c-23 -9 -43 -39 -43 -62 0 -29 28 -50 81 -62 34 -8 54 -18
54 -27 0 -20 -37 -24 -51 -4 -10 13 -20 15 -55 8 l-42 -8 25 -29 c23 -27 31
-30 91 -30 56 -1 69 2 91 23 49 46 23 104 -51 116 -53 9 -63 13 -63 25 0 13
47 13 52 -1 4 -12 78 -2 78 11 0 4 -9 15 -20 25 -23 21 -112 30 -147 15z"/>
<path d="M745 644 c49 -116 48 -134 -6 -134 -33 0 -38 -19 -12 -45 21 -22 88
-15 114 12 13 13 109 250 109 270 0 2 -18 3 -40 3 l-39 0 -19 -61 c-21 -68
-22 -68 -46 9 l-18 52 -43 0 -44 0 44 -106z"/>
<path d="M970 580 l0 -40 45 0 45 0 0 40 0 40 -45 0 -45 0 0 -40z"/>
</g>
</svg>
