<?xml version="1.0" standalone="no"?>
<!DOCTYPE svg PUBLIC "-//W3C//DTD SVG 20010904//EN"
 "http://www.w3.org/TR/2001/REC-SVG-20010904/DTD/svg10.dtd">
<svg version="1.0" xmlns="http://www.w3.org/2000/svg"
 width="128.000000pt" height="128.000000pt" viewBox="0 0 128.000000 128.000000"
 preserveAspectRatio="xMidYMid meet">
<metadata>
Created by potrace 1.14, written by Peter Selinger 2001-2017
</metadata>
<g transform="translate(0.000000,128.000000) scale(0.100000,-0.100000)"
fill="#000000" stroke="none">
<path d="M490 700 l0 -230 65 0 65 0 0 230 0 230 -65 0 -65 0 0 -230z"/>
<path d="M132 790 c-62 -38 -65 -115 -5 -155 17 -12 63 -27 102 -34 78 -14 99
-33 65 -58 -23 -17 -75 -10 -87 12 -5 10 -24 15 -60 15 -64 0 -83 -10 -69 -36
20 -38 51 -56 115 -67 152 -26 272 56 223 152 -19 36 -54 56 -116 65 -91 14
-100 17 -100 36 0 33 50 40 78 12 15 -15 30 -18 75 -14 67 5 72 17 22 61 -34
30 -40 31 -123 31 -69 0 -94 -4 -120 -20z"/>
<path d="M670 807 c0 -3 32 -80 70 -171 57 -135 68 -170 60 -186 -12 -23 -50
-35 -85 -26 -23 6 -25 4 -25 -26 0 -52 11 -61 76 -62 72 -1 115 16 138 55 18
31 156 394 156 411 0 5 -28 8 -62 6 l-61 -3 -28 -99 c-16 -54 -30 -104 -32
-110 -2 -6 -20 39 -38 99 l-35 110 -67 3 c-37 2 -67 1 -67 -1z"/>
<path d="M1100 535 l0 -65 70 0 70 0 0 65 0 65 -70 0 -70 0 0 -65z"/>
</g>
</svg>
